# Created by FreeCAD <http://www.freecadweb.org>
v 500.000000 -9.000000 -570.000000
v 500.000000 9.000000 -570.000000
v -500.000000 9.000000 -570.000000
v -500.000000 -9.000000 -570.000000
v 500.000000 -10.000000 -571.000000
v 500.000000 -10.000000 -589.000000
v 500.000000 10.000000 -589.000000
v 500.000000 -9.000000 -590.000000
v 500.000000 9.000000 -590.000000
v 500.000000 10.000000 -571.000000
v -500.000000 10.000000 -571.000000
v -500.000000 -10.000000 -571.000000
v -500.000000 -10.000000 -589.000000
v -500.000000 9.000000 -590.000000
v -500.000000 -9.000000 -590.000000
v -500.000000 10.000000 -589.000000
v -500.000000 259.390869 -570.000000
v 500.000000 259.390869 -570.000000
v -500.000000 277.390869 -570.000000
v 500.000000 277.390869 -570.000000
v 500.000000 258.390869 -571.000000
v 500.000000 258.390869 -589.000000
v 500.000000 259.390869 -590.000000
v 500.000000 278.390869 -571.000000
v 500.000000 277.390869 -590.000000
v 500.000000 278.390869 -589.000000
v -500.000000 258.390869 -571.000000
v -500.000000 278.390869 -571.000000
v -500.000000 258.390869 -589.000000
v -500.000000 277.390869 -590.000000
v -500.000000 259.390869 -590.000000
v -500.000000 278.390869 -589.000000
v 500.000000 9.000000 10.000000
v 510.000000 -9.000000 10.000000
v 510.000000 9.000000 10.000000
v 500.000000 -9.000000 10.000000
v 500.000000 -10.000000 -589.000000
v 500.000000 10.000000 -570.000000
v 500.000000 -9.000000 -590.000000
v 500.000000 258.390869 -570.000000
v 500.000000 288.784607 -590.000000
v 500.000000 289.361969 -589.093689
v 500.000000 10.000000 -37.324032
v 500.000000 -10.000000 9.000000
v 500.000000 10.422618 9.093692
v 510.000000 -10.000000 9.000000
v 510.000000 10.000000 -570.000000
v 510.000000 -10.000000 -589.000000
v 510.000000 -9.000000 -590.000000
v 510.000000 258.390869 -570.000000
v 510.000000 288.784607 -590.000000
v 510.000000 289.361969 -589.093689
v 510.000000 10.000000 -37.324032
v 510.000000 10.422618 9.093692
v -510.000000 -9.000000 10.000000
v -500.000000 9.000000 10.000000
v -510.000000 9.000000 10.000000
v -500.000000 -9.000000 10.000000
v -500.000000 10.000000 -570.000000
v -500.000000 -10.000000 -589.000000
v -500.000000 -9.000000 -590.000000
v -500.000000 258.390869 -570.000000
v -500.000000 288.784607 -590.000000
v -500.000000 289.361969 -589.093689
v -500.000000 10.000000 -37.324032
v -500.000000 -10.000000 9.000000
v -500.000000 10.422618 9.093692
v -510.000000 -10.000000 9.000000
v -510.000000 -10.000000 -589.000000
v -510.000000 10.000000 -570.000000
v -510.000000 -9.000000 -590.000000
v -510.000000 258.390869 -570.000000
v -510.000000 288.784607 -590.000000
v -510.000000 289.361969 -589.093689
v -510.000000 10.000000 -37.324032
v -510.000000 10.422618 9.093692
v 500.000000 257.390869 -570.000000
v 500.000000 257.968262 -569.093689
v 510.000000 257.968262 -569.093689
v 510.000000 257.390869 -570.000000
v 500.000000 10.000000 -38.324032
v 500.000000 10.422618 -38.230339
v 510.000000 10.000000 -38.324032
v 510.000000 10.422618 -38.230339
v 500.000000 10.000000 -569.000000
v 500.000000 11.000000 -570.000000
v 510.000000 11.000000 -570.000000
v 510.000000 10.000000 -569.000000
v -500.000000 257.968262 -569.093689
v -500.000000 257.390869 -570.000000
v -500.000000 258.390869 -570.000000
v -510.000000 257.968262 -569.093689
v -510.000000 257.390869 -570.000000
v -500.000000 10.000000 -37.324032
v -500.000000 10.000000 -38.324032
v -500.000000 10.422618 -38.230339
v -510.000000 10.000000 -38.324032
v -510.000000 10.422618 -38.230339
v -500.000000 10.000000 -569.000000
v -500.000000 10.000000 -570.000000
v -500.000000 11.000000 -570.000000
v -510.000000 11.000000 -570.000000
v -510.000000 10.000000 -569.000000
v -500.000000 -10.000000 9.000000
v -500.000000 -10.000000 -9.000000
v 500.000000 -10.000000 -9.000000
v 500.000000 -10.000000 9.000000
v -500.000000 9.000000 -10.000000
v -500.000000 10.000000 9.000000
v -500.000000 10.000000 -9.000000
v -500.000000 -9.000000 -10.000000
v -500.000000 -9.000000 10.000000
v -500.000000 9.000000 10.000000
v 500.000000 -9.000000 -10.000000
v 500.000000 -9.000000 10.000000
v 500.000000 10.000000 9.000000
v 500.000000 9.000000 -10.000000
v 500.000000 10.000000 -9.000000
v 500.000000 9.000000 10.000000
vn 0.000000 -0.000000 1.000000
vn 0.000000 0.000000 1.000000
vn 1.000000 0.000000 0.000000
vn 1.000000 0.000000 0.000000
vn 1.000000 0.000000 0.000000
vn 1.000000 0.000000 0.000000
vn 1.000000 0.000000 0.000000
vn 1.000000 0.000000 0.000000
vn 0.000000 0.707107 0.707107
vn 0.000000 0.707107 0.707107
vn 0.000000 -0.707107 0.707107
vn 0.000000 -0.707107 0.707107
vn -1.000000 0.000000 0.000000
vn -1.000000 0.000000 0.000000
vn -1.000000 0.000000 -0.000000
vn -1.000000 0.000000 0.000000
vn -1.000000 0.000000 0.000000
vn -1.000000 0.000000 0.000000
vn 0.000000 1.000000 0.000000
vn 0.000000 1.000000 0.000000
vn 0.000000 -1.000000 0.000000
vn 0.000000 -1.000000 0.000000
vn 0.000000 0.707107 -0.707107
vn 0.000000 0.707107 -0.707107
vn 0.000000 -0.707107 -0.707107
vn 0.000000 -0.707107 -0.707107
vn 0.000000 -0.000000 -1.000000
vn -0.000000 0.000000 -1.000000
vn 0.000000 0.000000 1.000000
vn 0.000000 -0.000000 1.000000
vn 1.000000 0.000000 0.000000
vn 1.000000 0.000000 0.000000
vn 1.000000 0.000000 0.000000
vn 1.000000 0.000000 0.000000
vn 1.000000 0.000000 0.000000
vn 1.000000 0.000000 0.000000
vn 0.000000 -0.707107 0.707107
vn 0.000000 -0.707107 0.707107
vn 0.000000 0.707107 0.707107
vn 0.000000 0.707107 0.707107
vn -1.000000 0.000000 0.000000
vn -1.000000 0.000000 0.000000
vn -1.000000 0.000000 -0.000000
vn -1.000000 0.000000 0.000000
vn -1.000000 0.000000 0.000000
vn -1.000000 0.000000 0.000000
vn 0.000000 -1.000000 0.000000
vn 0.000000 -1.000000 0.000000
vn 0.000000 1.000000 0.000000
vn 0.000000 1.000000 0.000000
vn 0.000000 -0.707107 -0.707107
vn 0.000000 -0.707107 -0.707107
vn 0.000000 0.707107 -0.707107
vn 0.000000 0.707107 -0.707107
vn 0.000000 0.000000 -1.000000
vn 0.000000 -0.000000 -1.000000
vn -0.000000 0.000000 1.000000
vn 0.000000 0.000000 1.000000
vn -1.000000 0.000000 0.000000
vn -1.000000 0.000000 -0.000000
vn -1.000000 0.000000 -0.000000
vn -1.000000 0.000000 0.000000
vn -1.000000 0.000000 0.000000
vn -1.000000 0.000000 0.000000
vn -1.000000 0.000000 -0.000000
vn -1.000000 0.000000 0.000000
vn -1.000000 0.000000 0.000000
vn -1.000000 0.000000 -0.000000
vn -1.000000 0.000000 0.000000
vn 0.000000 -0.707107 0.707107
vn 0.000000 -0.707107 0.707107
vn 1.000000 0.000000 0.000000
vn 1.000000 0.000000 0.000000
vn 1.000000 0.000000 0.000000
vn 1.000000 0.000000 0.000000
vn 1.000000 0.000000 0.000000
vn 1.000000 0.000000 0.000000
vn 1.000000 0.000000 0.000000
vn 1.000000 0.000000 0.000000
vn 1.000000 0.000000 0.000000
vn 1.000000 0.000000 0.000000
vn 1.000000 0.000000 0.000000
vn 0.000000 0.537300 0.843391
vn 0.000000 0.537300 0.843391
vn 0.000000 0.906308 0.422618
vn -0.000000 0.906308 0.422618
vn 0.000000 0.843401 -0.537285
vn 0.000000 0.843401 -0.537285
vn 0.000000 0.000000 -1.000000
vn 0.000000 0.000000 -1.000000
vn 0.000000 -0.707107 -0.707107
vn 0.000000 -0.707107 -0.707107
vn 0.000000 -1.000000 0.000000
vn 0.000000 -1.000000 -0.000000
vn 0.000000 -0.000000 1.000000
vn 0.000000 0.000000 1.000000
vn 0.000000 1.000000 0.000000
vn 0.000000 1.000000 0.000000
vn -0.000000 -0.906308 -0.422618
vn 0.000000 -0.906308 -0.422618
vn 0.000000 0.000000 1.000000
vn 0.000000 -0.000000 1.000000
vn 1.000000 0.000000 0.000000
vn 1.000000 0.000000 0.000000
vn 1.000000 0.000000 0.000000
vn 1.000000 0.000000 0.000000
vn 1.000000 0.000000 0.000000
vn 1.000000 0.000000 0.000000
vn 1.000000 0.000000 0.000000
vn 1.000000 0.000000 0.000000
vn 1.000000 0.000000 0.000000
vn 1.000000 0.000000 0.000000
vn 1.000000 0.000000 0.000000
vn 0.000000 -0.707107 0.707107
vn 0.000000 -0.707107 0.707107
vn -1.000000 0.000000 0.000000
vn -1.000000 0.000000 -0.000000
vn -1.000000 0.000000 -0.000000
vn -1.000000 0.000000 0.000000
vn -1.000000 0.000000 0.000000
vn -1.000000 0.000000 0.000000
vn -1.000000 0.000000 -0.000000
vn -1.000000 0.000000 0.000000
vn -1.000000 0.000000 0.000000
vn -1.000000 0.000000 -0.000000
vn -1.000000 0.000000 0.000000
vn 0.000000 0.537300 0.843391
vn 0.000000 0.537300 0.843391
vn 0.000000 0.906308 0.422618
vn 0.000000 0.906308 0.422618
vn 0.000000 0.843401 -0.537285
vn 0.000000 0.843401 -0.537285
vn 0.000000 -0.000000 -1.000000
vn -0.000000 0.000000 -1.000000
vn 0.000000 -0.707107 -0.707107
vn 0.000000 -0.707107 -0.707107
vn 0.000000 -1.000000 0.000000
vn 0.000000 -1.000000 0.000000
vn 0.000000 -0.906308 -0.422618
vn 0.000000 -0.906308 -0.422618
vn 0.000000 1.000000 0.000000
vn 0.000000 1.000000 0.000000
vn 0.000000 0.000000 1.000000
vn -0.000000 0.000000 1.000000
vn -1.000000 0.000000 0.000000
vn 0.000000 -0.843388 0.537305
vn 0.000000 -0.843388 0.537305
vn 0.000000 0.906313 0.422608
vn 0.000000 0.906313 0.422608
vn 0.000000 -0.000000 -1.000000
vn -0.000000 0.000000 -1.000000
vn 1.000000 0.000000 0.000000
vn -1.000000 0.000000 0.000000
vn -0.000000 -1.000000 0.000000
vn 0.000000 -1.000000 0.000000
vn 0.000000 0.906308 0.422618
vn 0.000000 0.906308 0.422618
vn 0.000000 0.216441 -0.976296
vn 0.000000 0.216441 -0.976296
vn 1.000000 0.000000 0.000000
vn -1.000000 0.000000 0.000000
vn 0.000000 0.000000 -1.000000
vn -0.000000 -0.000000 -1.000000
vn 0.000000 -1.000000 0.000000
vn 0.000000 -1.000000 0.000000
vn -0.000000 0.707107 0.707107
vn 0.000000 0.707107 0.707107
vn 1.000000 0.000000 0.000000
vn 1.000000 0.000000 0.000000
vn 0.000000 -0.843388 0.537305
vn 0.000000 -0.843388 0.537305
vn 0.000000 0.906313 0.422608
vn 0.000000 0.906313 0.422608
vn 0.000000 0.000000 -1.000000
vn 0.000000 0.000000 -1.000000
vn -1.000000 0.000000 0.000000
vn 1.000000 0.000000 0.000000
vn -0.000000 -1.000000 -0.000000
vn 0.000000 -1.000000 0.000000
vn -0.000000 0.906308 0.422618
vn 0.000000 0.906308 0.422618
vn 0.000000 0.216441 -0.976296
vn 0.000000 0.216441 -0.976296
vn -1.000000 0.000000 0.000000
vn 1.000000 0.000000 0.000000
vn 0.000000 0.000000 -1.000000
vn 0.000000 0.000000 -1.000000
vn 0.000000 -1.000000 0.000000
vn 0.000000 -1.000000 -0.000000
vn -0.000000 0.707107 0.707107
vn -0.000000 0.707107 0.707107
vn -1.000000 0.000000 0.000000
vn 0.000000 -1.000000 0.000000
vn 0.000000 -1.000000 0.000000
vn -1.000000 0.000000 0.000000
vn -1.000000 0.000000 0.000000
vn -1.000000 0.000000 0.000000
vn -1.000000 0.000000 0.000000
vn -1.000000 0.000000 0.000000
vn -1.000000 0.000000 0.000000
vn 0.000000 -0.707107 -0.707107
vn 0.000000 -0.707107 -0.707107
vn 0.000000 -0.707107 0.707107
vn 0.000000 -0.707107 0.707107
vn 1.000000 0.000000 0.000000
vn 1.000000 0.000000 0.000000
vn 1.000000 0.000000 0.000000
vn 1.000000 0.000000 0.000000
vn 1.000000 0.000000 0.000000
vn 1.000000 -0.000000 0.000000
vn 0.000000 0.000000 -1.000000
vn 0.000000 0.000000 -1.000000
vn 0.000000 0.000000 1.000000
vn -0.000000 0.000000 1.000000
vn 0.000000 0.707107 -0.707107
vn 0.000000 0.707107 -0.707107
vn 0.000000 0.707107 0.707107
vn 0.000000 0.707107 0.707107
vn 0.000000 1.000000 0.000000
vn 0.000000 1.000000 0.000000
g Chamfer002
f 1//1 2//1 3//1
f 1//2 3//2 4//2
f 1//3 5//3 6//3
f 7//4 6//4 8//4
f 7//5 8//5 9//5
f 7//6 1//6 6//6
f 2//7 1//7 7//7
f 10//8 2//8 7//8
f 10//9 11//9 2//9
f 2//10 11//10 3//10
f 4//11 5//11 1//11
f 12//12 5//12 4//12
f 13//13 14//13 15//13
f 13//14 12//14 14//14
f 4//15 3//15 12//15
f 12//16 3//16 14//16
f 14//17 11//17 16//17
f 3//18 11//18 14//18
f 10//19 7//19 16//19
f 10//20 16//20 11//20
f 6//21 5//21 12//21
f 6//22 12//22 13//22
f 9//23 16//23 7//23
f 9//24 14//24 16//24
f 15//25 8//25 6//25
f 15//26 6//26 13//26
f 9//27 8//27 15//27
f 9//28 15//28 14//28
f 17//29 18//29 19//29
f 18//30 20//30 19//30
f 21//31 22//31 23//31
f 24//32 25//32 26//32
f 20//33 18//33 21//33
f 20//34 23//34 25//34
f 20//35 21//35 23//35
f 20//36 25//36 24//36
f 27//37 21//37 18//37
f 27//38 18//38 17//38
f 24//39 19//39 20//39
f 24//40 28//40 19//40
f 29//41 30//41 31//41
f 29//42 32//42 30//42
f 17//43 19//43 27//43
f 27//44 19//44 29//44
f 29//45 19//45 32//45
f 19//46 28//46 32//46
f 22//47 21//47 29//47
f 29//48 21//48 27//48
f 24//49 26//49 28//49
f 28//50 26//50 32//50
f 29//51 23//51 22//51
f 31//52 23//52 29//52
f 25//53 30//53 26//53
f 26//54 30//54 32//54
f 30//55 25//55 31//55
f 25//56 23//56 31//56
g Mirrored
f 33//57 34//57 35//57
f 33//58 36//58 34//58
f 37//59 38//59 39//59
f 38//60 40//60 39//60
f 40//61 41//61 39//61
f 40//62 42//62 41//62
f 37//63 43//63 38//63
f 40//64 43//64 42//64
f 36//65 33//65 44//65
f 43//66 45//66 42//66
f 44//67 45//67 43//67
f 33//68 45//68 44//68
f 37//69 44//69 43//69
f 44//70 34//70 36//70
f 44//71 46//71 34//71
f 47//72 48//72 49//72
f 50//73 47//73 49//73
f 51//74 50//74 49//74
f 52//75 50//75 51//75
f 53//76 48//76 47//76
f 53//77 50//77 52//77
f 35//78 34//78 46//78
f 54//79 53//79 52//79
f 54//80 46//80 53//80
f 54//81 35//81 46//81
f 46//82 48//82 53//82
f 35//83 45//83 33//83
f 54//84 45//84 35//84
f 42//85 45//85 54//85
f 42//86 54//86 52//86
f 52//87 41//87 42//87
f 51//88 41//88 52//88
f 39//89 51//89 49//89
f 39//90 41//90 51//90
f 39//91 48//91 37//91
f 39//92 49//92 48//92
f 44//93 37//93 46//93
f 46//94 37//94 48//94
f 47//95 50//95 38//95
f 38//96 50//96 40//96
f 53//97 47//97 43//97
f 43//98 47//98 38//98
f 50//99 53//99 40//99
f 40//100 53//100 43//100
f 55//101 56//101 57//101
f 58//102 56//102 55//102
f 59//103 60//103 61//103
f 62//104 59//104 61//104
f 63//105 62//105 61//105
f 64//106 62//106 63//106
f 65//107 60//107 59//107
f 65//108 62//108 64//108
f 56//109 58//109 66//109
f 67//110 65//110 64//110
f 67//111 66//111 65//111
f 67//112 56//112 66//112
f 66//113 60//113 65//113
f 55//114 66//114 58//114
f 68//115 66//115 55//115
f 69//116 70//116 71//116
f 70//117 72//117 71//117
f 72//118 73//118 71//118
f 72//119 74//119 73//119
f 69//120 75//120 70//120
f 72//121 75//121 74//121
f 55//122 57//122 68//122
f 75//123 76//123 74//123
f 68//124 76//124 75//124
f 57//125 76//125 68//125
f 69//126 68//126 75//126
f 67//127 57//127 56//127
f 67//128 76//128 57//128
f 67//129 64//129 76//129
f 76//130 64//130 74//130
f 63//131 74//131 64//131
f 63//132 73//132 74//132
f 63//133 61//133 71//133
f 63//134 71//134 73//134
f 69//135 61//135 60//135
f 71//136 61//136 69//136
f 60//137 66//137 68//137
f 60//138 68//138 69//138
f 75//139 72//139 62//139
f 75//140 62//140 65//140
f 70//141 75//141 65//141
f 70//142 65//142 59//142
f 72//143 70//143 59//143
f 72//144 59//144 62//144
f 77//145 78//145 40//145
f 79//146 78//146 80//146
f 80//147 78//147 77//147
f 50//148 40//148 78//148
f 79//149 50//149 78//149
f 50//150 80//150 77//150
f 50//151 77//151 40//151
f 79//152 80//152 50//152
f 81//153 43//153 82//153
f 53//154 43//154 81//154
f 83//155 53//155 81//155
f 53//156 84//156 82//156
f 53//157 82//157 43//157
f 83//158 82//158 84//158
f 83//159 81//159 82//159
f 53//160 83//160 84//160
f 38//161 85//161 86//161
f 47//162 38//162 86//162
f 87//163 47//163 86//163
f 47//164 88//164 85//164
f 47//165 85//165 38//165
f 85//166 88//166 87//166
f 85//167 87//167 86//167
f 88//168 47//168 87//168
f 89//169 90//169 91//169
f 89//170 92//170 93//170
f 89//171 93//171 90//171
f 91//172 72//172 89//172
f 72//173 92//173 89//173
f 93//174 72//174 90//174
f 90//175 72//175 91//175
f 93//176 92//176 72//176
f 94//177 95//177 96//177
f 94//178 75//178 95//178
f 75//179 97//179 95//179
f 98//180 75//180 96//180
f 96//181 75//181 94//181
f 96//182 97//182 98//182
f 95//183 97//183 96//183
f 97//184 75//184 98//184
f 99//185 100//185 101//185
f 100//186 70//186 101//186
f 70//187 102//187 101//187
f 103//188 70//188 99//188
f 99//189 70//189 100//189
f 103//190 99//190 102//190
f 102//191 99//191 101//191
f 70//192 103//192 102//192
g Chamfer
f 104//193 105//193 106//193
f 104//194 106//194 107//194
f 108//195 109//195 110//195
f 111//196 105//196 108//196
f 105//197 104//197 108//197
f 109//198 112//198 113//198
f 108//199 112//199 109//199
f 104//200 112//200 108//200
f 111//201 106//201 105//201
f 111//202 114//202 106//202
f 107//203 112//203 104//203
f 115//204 112//204 107//204
f 116//205 117//205 118//205
f 119//206 117//206 116//206
f 106//207 114//207 117//207
f 115//208 107//208 106//208
f 115//209 106//209 117//209
f 115//210 117//210 119//210
f 111//211 108//211 117//211
f 111//212 117//212 114//212
f 113//213 112//213 115//213
f 113//214 115//214 119//214
f 118//215 108//215 110//215
f 117//216 108//216 118//216
f 119//217 109//217 113//217
f 116//218 109//218 119//218
f 110//219 109//219 116//219
f 110//220 116//220 118//220
